<?xml version="1.0" encoding="UTF-8"?>
<svg xmlns="http://www.w3.org/2000/svg" version="1.1" xmlns:xlink="http://www.w3.org/1999/xlink" viewBox="0 0 1000 1000">
  <defs>
    <style>
      .cls-1 {
        fill: #f1f1f1;
        opacity: .75;
      }

      .cls-2 {
        fill: url(#radial-gradient);
      }

      .cls-3 {
        fill: #231f20;
        stroke: #231f20;
        stroke-width: .46px;
      }
    </style>
    <radialGradient id="radial-gradient" cx="500.4" cy="500.2" fx="500.4" fy="500.2" r="499.6" gradientUnits="userSpaceOnUse">
      <stop offset="0" stop-color="#f3f0ef"/>
      <stop offset=".18" stop-color="#eae6e4"/>
      <stop offset=".49" stop-color="#d3ccc9"/>
      <stop offset=".81" stop-color="#b7aba7"/>
    </radialGradient>
  </defs>
  <!-- Generator: Adobe Illustrator 28.7.0, SVG Export Plug-In . SVG Version: 1.2.0 Build 136)  -->
  <g>
    <g id="Layer_1">
      <g>
        <g>
          <path class="cls-2" d="M1000,500.18c0,275.95-223.68,499.63-499.6,499.63S.8,776.13.8,500.18,224.48.59,500.4.59s499.6,223.67,499.6,499.58Z"/>
          <path class="cls-1" d="M120.99,260.53S210.77,101.25,407.73,63.6c0,0,46.33,11.57-34.76,52.11,0,0-182.47,153.51-214.33,159.31,0,0-49.22,20.25-37.65-14.49Z"/>
        </g>
        <path class="cls-3" d="M798.35,665.94c-82.64-23.71-160.9-35.46-231.89-39.69-55.9,120.7-66.42,217.2-66.42,217.2-17.16-84.8-40.45-156.56-66.51-216.93-141.48,9.12-232.29,43.36-235.51,44.57,70.14-53.16,124.33-113.58,166.01-173.84-81.15-122.17-161.58-162.85-161.58-162.85,82.64,23.7,160.85,35.45,231.84,39.68,55.91-120.66,66.47-217.14,66.47-217.14,17.15,84.76,40.46,156.43,66.52,216.87,141.48-9.12,232.29-43.36,235.5-44.58-70.18,53.16-124.32,113.59-166,173.87,81.15,122.14,161.57,162.83,161.57,162.83Z"/>
      </g>
    </g>
  </g>
</svg>