<?xml version="1.0" encoding="UTF-8"?>
<svg xmlns="http://www.w3.org/2000/svg" version="1.1" xmlns:xlink="http://www.w3.org/1999/xlink" viewBox="0 0 1000 1000">
  <defs>
    <style>
      .cls-1 {
        fill: #f1f1f1;
        opacity: .75;
      }

      .cls-2 {
        fill: url(#radial-gradient);
      }

      .cls-3 {
        fill-rule: evenodd;
      }
    </style>
    <radialGradient id="radial-gradient" cx="500.4" cy="500.2" fx="500.4" fy="500.2" r="499.6" gradientUnits="userSpaceOnUse">
      <stop offset="0" stop-color="#cfb051"/>
      <stop offset=".25" stop-color="#c6a549"/>
      <stop offset=".67" stop-color="#b18a36"/>
      <stop offset=".81" stop-color="#a9802f"/>
    </radialGradient>
  </defs>
  <!-- Generator: Adobe Illustrator 28.7.0, SVG Export Plug-In . SVG Version: 1.2.0 Build 136)  -->
  <g>
    <g id="Layer_1">
      <g>
        <g>
          <path class="cls-2" d="M1000,500.21c0,275.91-223.68,499.58-499.6,499.58S.8,776.12.8,500.21,224.48.61,500.4.61s499.6,223.68,499.6,499.6Z"/>
          <path class="cls-1" d="M120.99,260.54S210.77,101.27,407.73,63.59c0,0,46.33,11.6-34.76,52.14,0,0-182.47,153.48-214.33,159.28,0,0-49.22,20.28-37.65-14.48Z"/>
        </g>
        <path class="cls-3" d="M497.94,608.64c-21.45-88.36-42.68-175.76-64.34-264.99,2.82,2.2,4.26,3.17,5.55,4.33,109.31,98.14,218.62,196.3,327.93,294.43,24.43,21.95,48.71,44.04,73.48,65.58,5.44,4.73,5.27,7.99,1.75,13.44-34.9,54.21-82.92,91.1-144.65,109.79-48.41,14.68-97.57,14.77-146.83,5.45-104.57-19.86-193.8-68.67-267.59-145.08-61.4-63.58-104.46-137.56-121.23-225.28-10.46-54.73-8.34-108.91,14.55-160.41,34.92-78.51,95.7-125.92,179.75-142.79,52.58-10.56,104.81-5.87,156.28,7.81,57.21,15.24,109.87,39.91,156.12,77.3,7.14,5.8,13.83,12.13,19.88,19.45-2.42-1.42-4.86-2.79-7.26-4.21-39.95-23.92-83.79-35.75-129.54-41.32-34.01-4.14-67.99-5.12-101.74,2.55-30.46,6.95-58.4,19.18-81.97,40.02-36.42,32.17-53.05,72.95-48.32,121.19,6.22,63.38,31.05,118.38,78.22,162.35,26.16,24.39,68.42,50.14,99.95,60.37ZM558.28,558.57c-.43.24-.86.47-1.29.72,4.94,20.38,9.73,40.78,14.99,61.11.5,1.9,3.66,3.76,5.96,4.46,20.05,6.33,40.16,12.4,60.27,18.53,4.56,1.38,9.14,2.69,13.72,4.02.23-.39.46-.76.69-1.18-31.44-29.2-62.89-58.43-94.33-87.66Z"/>
      </g>
    </g>
  </g>
</svg>