<?xml version="1.0" encoding="UTF-8"?>
<svg xmlns="http://www.w3.org/2000/svg" version="1.1" xmlns:xlink="http://www.w3.org/1999/xlink" viewBox="0 0 1000 1000">
  <defs>
    <style>
      .cls-1 {
        fill: #f1f1f1;
        opacity: .75;
      }

      .cls-2 {
        fill: url(#radial-gradient);
      }

      .cls-3 {
        fill-rule: evenodd;
      }
    </style>
    <radialGradient id="radial-gradient" cx="500.4" cy="500.2" fx="500.4" fy="500.2" r="499.59" gradientUnits="userSpaceOnUse">
      <stop offset="0" stop-color="#ef9fba"/>
      <stop offset=".15" stop-color="#eb94b2"/>
      <stop offset=".41" stop-color="#e2799e"/>
      <stop offset=".75" stop-color="#d44d7d"/>
      <stop offset=".81" stop-color="#d24577"/>
    </radialGradient>
  </defs>
  <!-- Generator: Adobe Illustrator 28.7.0, SVG Export Plug-In . SVG Version: 1.2.0 Build 136)  -->
  <g>
    <g id="Layer_1">
      <g>
        <g>
          <path class="cls-2" d="M1000,500.21c0,275.91-223.68,499.58-499.6,499.58S.8,776.12.8,500.21,224.47.61,500.4.61s499.6,223.68,499.6,499.6Z"/>
          <path class="cls-1" d="M121,260.55S210.78,101.28,407.72,63.6c0,0,46.33,11.6-34.75,52.14,0,0-182.47,153.48-214.33,159.28,0,0-49.23,20.28-37.64-14.47Z"/>
        </g>
        <g>
          <path class="cls-3" d="M511.3,841.64c-.16-1.74-.76-3.57-.42-5.24,7.59-37.32,14.27-74.87,26.47-111.13,15.66-46.49,42.84-84.4,83.16-112.28,23.37-16.16,47.57-31.16,71.77-46.12,23.29-14.38,45.62-29.74,62.82-51.51,29.91-37.83,40.58-81.25,37.76-128.71-2.76-45.87-15.44-89.25-32.43-131.61-.6-1.48-1.57-2.93-1.73-4.47-.16-1.38.13-3.57.99-4.08,1.01-.59,3.16-.15,4.25.62,1.96,1.39,3.48,3.38,5.15,5.08,43.78,45.46,75.12,97.76,87.61,160.23,2.84,14.21,3.96,28.74,5.89,43.12.36,2.79.69,5.57,1.04,8.36v21.77c-.35,2.79-.68,5.54-1.07,8.3-2.28,16.15-3.58,32.51-7.04,48.42-15.63,71.28-53.2,129.97-105.67,179.56-61.19,57.87-134.15,94.09-215.25,114.87-5.79,1.48-11.51,3.21-17.26,4.82h-6.05Z"/>
          <path class="cls-3" d="M137.16,466.32c1.6-13.38,2.59-26.87,4.9-40.13,12.05-69.2,44.88-127.59,93.53-177.54,1.37-1.39,4.05-1.51,6.11-2.25-.1,2.22.42,4.7-.38,6.65-12.95,32.23-23.97,65.08-29.64,99.5-5.22,31.7-6.09,63.39,1.49,94.92,10.57,43.88,34.47,78.83,71.9,103.92,20.25,13.58,41.62,25.48,62.23,38.54,12.44,7.84,24.62,16.12,36.6,24.68,41.97,29.98,67.95,71.44,82.03,120.12,9.63,33.23,16.29,67.35,24.15,101.1.41,1.81-.37,3.88-.6,5.8h-4.83c-7.78-2.01-15.55-4.05-23.33-6.09-88.77-23-166.24-65.65-229.28-132.87-45.84-48.91-77.22-105.65-89.43-172.09-2.65-14.41-3.69-29.12-5.46-43.71v-20.57Z"/>
          <path class="cls-3" d="M502.82,158.77c8.89,24.42,17.31,48.98,26.88,73.12,3.66,9.28,9.38,17.88,15.11,26.11,21.31,30.69,51.38,43.42,88.13,41.88,22.59-.92,44.22-6.49,65.7-13.05,2.07-.65,4.62.3,6.95.5-1.29,1.98-2.12,4.58-3.93,5.88-19.37,13.84-38.88,27.44-58.39,41.11-61.86,43.27-100.48,102.25-117.29,175.44-8.07,35.16-14.44,70.73-21.74,106.06-.49,2.37-2.39,4.47-3.64,6.69-1.3-2.16-3.31-4.2-3.79-6.54-7.29-35.55-13.69-71.29-21.67-106.69-16.49-73.25-56.16-131.32-117.32-174.73-18.91-13.43-37.91-26.74-56.87-40.13-1.31-.95-3.01-1.6-3.86-2.85-.89-1.27-.99-3.1-1.42-4.67,1.44-.33,3.04-1.24,4.31-.89,6.04,1.57,11.97,3.6,18,5.27,22.69,6.19,45.57,10.53,69.29,8.2,23.99-2.37,44.03-12.16,59.95-30.45,16.04-18.42,26.41-39.95,34.78-62.56,4.89-13.27,9.11-26.73,13.73-40.08.9-2.63,2.29-5.09,3.45-7.64h3.64Z"/>
        </g>
      </g>
    </g>
  </g>
</svg>