<?xml version="1.0" encoding="UTF-8"?>
<svg xmlns="http://www.w3.org/2000/svg" version="1.1" xmlns:xlink="http://www.w3.org/1999/xlink" viewBox="0 0 1000 1000">
  <defs>
    <style>
      .cls-1 {
        fill: #f1f1f1;
        opacity: .75;
      }

      .cls-2 {
        fill: url(#radial-gradient);
      }

      .cls-3 {
        fill: #231f20;
        stroke: #231f20;
        stroke-width: .57px;
      }
    </style>
    <radialGradient id="radial-gradient" cx="500.4" cy="500.2" fx="500.4" fy="500.2" r="499.59" gradientUnits="userSpaceOnUse">
      <stop offset="0" stop-color="#e45926"/>
      <stop offset=".2" stop-color="#d95325"/>
      <stop offset=".55" stop-color="#be4524"/>
      <stop offset=".81" stop-color="#a63823"/>
    </radialGradient>
  </defs>
  <!-- Generator: Adobe Illustrator 28.7.0, SVG Export Plug-In . SVG Version: 1.2.0 Build 136)  -->
  <g>
    <g id="Layer_1">
      <g>
        <g>
          <path class="cls-2" d="M1000,500.2c0,275.92-223.7,499.59-499.61,499.59S.8,776.12.8,500.2,224.48.61,500.39.61s499.61,223.68,499.61,499.59Z"/>
          <path class="cls-1" d="M121.01,260.55S210.78,101.24,407.73,63.59c0,0,46.34,11.59-34.75,52.13,0,0-182.47,153.5-214.33,159.29,0,0-49.24,20.28-37.65-14.47Z"/>
        </g>
        <g>
          <polygon class="cls-3" points="355.73 844.32 649.55 844.32 649.55 791.3 690.42 750.43 786.54 750.43 813.59 723.38 813.59 512.94 783.49 482.83 581.06 482.83 545.02 518.88 545.02 619 515.54 648.47 452.95 648.47 419.06 682.33 419.06 751.52 391.83 778.81 357.24 778.81 355.73 844.32"/>
          <polygon class="cls-3" points="225.4 747.11 346.92 747.11 383.34 710.65 383.34 654.33 418.14 619.53 488.28 619.53 521.7 586.12 521.7 517.37 487.3 482.98 225.4 482.98 187.22 521.15 187.22 711.77 225.4 747.11"/>
          <path class="cls-3" d="M324.57,433.17c0,11.23-9.12,20.33-20.36,20.33h-94.41c-11.25,0-20.36-9.1-20.36-20.33v-220.12c0-11.24,9.11-20.34,20.36-20.34h94.41c11.24,0,20.36,9.1,20.36,20.34v220.12Z"/>
          <path class="cls-3" d="M808.76,433.17c0,11.23-9.1,20.33-20.32,20.33h-94.43c-11.24,0-20.36-9.1-20.36-20.33v-220.12c0-11.24,9.12-20.34,20.36-20.34h94.43c11.22,0,20.32,9.1,20.32,20.34v220.12Z"/>
          <path class="cls-3" d="M483.26,422.44c0,12.45-9.09,22.54-20.33,22.54h-94.43c-11.25,0-20.36-10.09-20.36-22.54v-243.84c0-12.43,9.11-22.53,20.36-22.53h94.43c11.24,0,20.33,10.1,20.33,22.53v243.84Z"/>
          <path class="cls-3" d="M648.04,422.44c0,12.45-9.08,22.54-20.33,22.54h-94.43c-11.24,0-20.33-10.09-20.33-22.54v-243.84c0-12.43,9.09-22.53,20.33-22.53h94.43c11.25,0,20.33,10.1,20.33,22.53v243.84Z"/>
        </g>
      </g>
    </g>
  </g>
</svg>