<?xml version="1.0" encoding="UTF-8"?>
<svg xmlns="http://www.w3.org/2000/svg" version="1.1" xmlns:xlink="http://www.w3.org/1999/xlink" viewBox="0 0 1000 1000">
  <defs>
    <style>
      .cls-1 {
        fill: #f1f1f1;
        opacity: .75;
      }

      .cls-2 {
        fill: url(#radial-gradient);
      }

      .cls-3 {
        fill: #231f20;
        stroke: #231f20;
        stroke-width: .54px;
      }
    </style>
    <radialGradient id="radial-gradient" cx="500.4" cy="500.2" fx="500.4" fy="500.2" r="499.6" gradientUnits="userSpaceOnUse">
      <stop offset="0" stop-color="#c5d93a"/>
      <stop offset=".09" stop-color="#bad53a"/>
      <stop offset=".24" stop-color="#9fcb3c"/>
      <stop offset=".43" stop-color="#72bc40"/>
      <stop offset=".66" stop-color="#35a644"/>
      <stop offset=".81" stop-color="#0d9848"/>
    </radialGradient>
  </defs>
  <!-- Generator: Adobe Illustrator 28.7.0, SVG Export Plug-In . SVG Version: 1.2.0 Build 136)  -->
  <g>
    <g id="Layer_1">
      <g>
        <g>
          <path class="cls-2" d="M1000,500.2c0,275.93-223.7,499.6-499.61,499.6S.8,776.13.8,500.2,224.48.6,500.39.6s499.61,223.67,499.61,499.6Z"/>
          <path class="cls-1" d="M121.01,260.54S210.78,101.25,407.73,63.6c0,0,46.34,11.58-34.75,52.13,0,0-182.47,153.49-214.33,159.29,0,0-49.24,20.27-37.65-14.48Z"/>
        </g>
        <path class="cls-3" d="M801.75,529.52c-15.8-115.63-91.83-205.13-146.04-304.81-11.63-21.44-22.68-43.17-32.64-65.31-165.94,65.18-392.99,148.13-424.3,350.75-16.64,107.76,74.19,214.01,182.92,214.05,0,0-8.23,79.92,16.39,98.36l92.19,18.45s-14.32-79.91-4.08-94.28c10.24-14.33,348.35,22.54,315.56-217.21ZM449.3,666.83s-24.58,53.26-14.35,116.81c0,0-40.99-88.13-24.59-143.47,0,0-67.61-98.36-155.76-75.82,0,0,57.38-51.22,153.72,20.5l18.44-75.82s-32.79-77.87-143.45-65.58c0,0,79.91-43.04,159.84,22.54l18.44-45.09s-16.39-79.91-102.45-81.96c0,0,79.9-18.44,125.01,40.99,0,0,55.31-114.75,98.34-155.74,0,0-73.75,133.2-61.47,147.54,0,0,88.12-43.03,176.23,4.1,0,0-129.1-34.84-202.87,55.33l-8.19,34.83s149.6-51.23,243.85,26.64c0,0-135.25-71.71-264.33,32.79l-12.33,75.84s127.06-75.84,264.35,4.09c0,0-223.35-55.34-268.43,61.48Z"/>
      </g>
    </g>
  </g>
</svg>