<?xml version="1.0" encoding="UTF-8"?>
<svg xmlns="http://www.w3.org/2000/svg" version="1.1" xmlns:xlink="http://www.w3.org/1999/xlink" viewBox="0 0 1000 1000">
  <defs>
    <style>
      .cls-1 {
        fill: #f1f1f1;
        opacity: .75;
      }

      .cls-2 {
        fill: url(#radial-gradient);
      }

      .cls-3 {
        fill: #231f20;
      }
    </style>
    <radialGradient id="radial-gradient" cx="500.4" cy="500.2" fx="500.4" fy="500.2" r="499.6" gradientUnits="userSpaceOnUse">
      <stop offset="0" stop-color="#afdef7"/>
      <stop offset=".09" stop-color="#a4d7f3"/>
      <stop offset=".25" stop-color="#89c7ea"/>
      <stop offset=".45" stop-color="#5cacda"/>
      <stop offset=".69" stop-color="#1f88c5"/>
      <stop offset=".81" stop-color="#0075bb"/>
    </radialGradient>
  </defs>
  <!-- Generator: Adobe Illustrator 28.7.0, SVG Export Plug-In . SVG Version: 1.2.0 Build 136)  -->
  <g>
    <g id="Layer_1">
      <g>
        <g>
          <path class="cls-2" d="M1000,500.2c0,275.92-223.69,499.59-499.6,499.59S.8,776.13.8,500.2,224.46.6,500.4.6s499.6,223.68,499.6,499.6Z"/>
          <path class="cls-1" d="M121,260.54S210.77,101.25,407.71,63.6c0,0,46.34,11.58-34.74,52.13,0,0-182.48,153.5-214.33,159.29,0,0-49.23,20.27-37.64-14.48Z"/>
        </g>
        <path class="cls-3" d="M835.53,159.1c-29.95-2.89-60.47-2.3-90.46-1.47-134.22,3.65-272.45,30.89-385.93,105.96-68.41,45.28-136.43,107.3-171.83,182.54-37.45,79.55-27.66,214.56,32.78,283.61,52.07,59.52,120.77,93.95,194.51,107.28,68.22,12.33,140.76,6.57,208.43-14.13,145.16-44.44,174.21-188.55,70.06-303.38-46.75-51.53-99.01-111.54-89.2-187.85,11.15-86.76,148.72-180.48,231.64-172.56ZM521,797.03c-11.88,15.37-54.18,15.88-71.61,12.79-22.01-3.89-191.22-76.43-103.61-103.89,31.27-9.79,217,36.98,175.23,91.1Z"/>
      </g>
    </g>
  </g>
</svg>