<?xml version="1.0" encoding="UTF-8"?>
<svg xmlns="http://www.w3.org/2000/svg" version="1.1" xmlns:xlink="http://www.w3.org/1999/xlink" viewBox="0 0 1000 1000">
  <defs>
    <style>
      .cls-1 {
        fill: #f1f1f1;
        opacity: .75;
      }

      .cls-2 {
        fill: #231f20;
        stroke: #231f20;
        stroke-width: .55px;
      }

      .cls-3 {
        fill: url(#radial-gradient);
      }
    </style>
    <radialGradient id="radial-gradient" cx="500.4" cy="500.2" fx="500.4" fy="500.2" r="499.6" gradientUnits="userSpaceOnUse">
      <stop offset="0" stop-color="#69a8ce"/>
      <stop offset=".1" stop-color="#629fc3"/>
      <stop offset=".28" stop-color="#5189a8"/>
      <stop offset=".51" stop-color="#36667c"/>
      <stop offset=".78" stop-color="#11353f"/>
      <stop offset=".81" stop-color="#0e313a"/>
    </radialGradient>
  </defs>
  <!-- Generator: Adobe Illustrator 28.7.0, SVG Export Plug-In . SVG Version: 1.2.0 Build 136)  -->
  <g>
    <g id="Layer_1">
      <g>
        <g>
          <path class="cls-3" d="M1000,500.18c0,275.94-223.7,499.62-499.61,499.62S.8,776.12.8,500.18,224.48.6,500.39.6s499.61,223.67,499.61,499.58Z"/>
          <path class="cls-1" d="M121.01,260.53S210.78,101.25,407.73,63.58c0,0,46.34,11.6-34.75,52.14,0,0-182.47,153.51-214.33,159.31,0,0-49.24,20.25-37.65-14.49Z"/>
        </g>
        <path class="cls-2" d="M628.26,161.77c27.2,30.09,43.8,70.23,43.8,114.29,0,93.37-74.52,169.04-166.43,169.04s-166.44-75.67-166.44-169.04c0-45.99,18.11-87.69,47.44-118.17C220.19,200.59,98.67,334.43,98.67,493.05c0,192.98,179.85,349.43,401.71,349.43s401.74-156.44,401.74-349.43c0-154.1-114.7-284.82-273.86-331.28Z"/>
      </g>
    </g>
  </g>
</svg>