<?xml version="1.0" encoding="UTF-8"?>
<svg xmlns="http://www.w3.org/2000/svg" version="1.1" xmlns:xlink="http://www.w3.org/1999/xlink" viewBox="0 0 1000 1000">
  <defs>
    <style>
      .cls-1 {
        fill: #f1f1f1;
        opacity: .75;
      }

      .cls-2 {
        fill: url(#radial-gradient);
      }

      .cls-3 {
        fill: #231f20;
        stroke: #231f20;
        stroke-width: .38px;
      }
    </style>
    <radialGradient id="radial-gradient" cx="500.4" cy="500.2" fx="500.4" fy="500.2" r="499.6" gradientUnits="userSpaceOnUse">
      <stop offset="0" stop-color="#ea5f57"/>
      <stop offset=".2" stop-color="#e2544f"/>
      <stop offset=".54" stop-color="#cf393a"/>
      <stop offset=".81" stop-color="#be2027"/>
    </radialGradient>
  </defs>
  <!-- Generator: Adobe Illustrator 28.7.0, SVG Export Plug-In . SVG Version: 1.2.0 Build 136)  -->
  <g>
    <g id="Layer_1">
      <g>
        <g>
          <circle class="cls-2" cx="500.4" cy="500.2" r="499.6"/>
          <path class="cls-1" d="M120.99,260.53S210.77,101.24,407.73,63.59c0,0,46.33,11.58-34.76,52.13,0,0-182.47,153.5-214.33,159.3,0,0-49.22,20.27-37.65-14.49Z"/>
        </g>
        <path class="cls-3" d="M653,634.66s196.79-104.86,101.62-248.42c0,0-29.04,103.23-161.3,104.84,0,0,69.36-240.35-151.63-332.29,0,0,75.81,64.53,12.91,125.82-62.91,61.3-183.89,106.47-111.3,248.41,0,0-125.83-88.72-41.95-196.79,0,0-201.64,122.59-29.04,341.97,0,0-70.19-36.56-93.61-58.15-1.18-1.08-2.24-2.14-3.17-3.13-4.18-4.53.25,23.79.15,23.22,4.73,26.65,27.78,56.29,44.05,76.74,29.02,36.46,66.15,66.03,108.42,85.73,92.2,42.94,192.39,54.17,286.23,14.61,45.91-19.35,89.23-45.33,122.63-82.83,46.26-51.9,51.75-119.55,90.03-174.87-25.3,36.57-131.09,82.65-174.05,75.13ZM598.04,730.6c107.96,128.64-323.26,122.97-233.87,4.81,45.13-59.66-17.77-72.57-17.77-72.57,72.59-22.58,72.59,40.32,72.59,40.32,56.46-46.78,4.84-72.58,4.84-72.58-61.3-64.53,83.88-104.85,83.88-104.85,0,0-53.23,30.65-14.51,70.97,38.72,40.33,35.49,83.88,35.49,83.88,32.26-69.36,95.17-48.39,95.17-48.39-69.47,28.9-25.81,98.4-25.81,98.4Z"/>
      </g>
    </g>
  </g>
</svg>