<?xml version="1.0" encoding="UTF-8"?>
<svg xmlns="http://www.w3.org/2000/svg" version="1.1" xmlns:xlink="http://www.w3.org/1999/xlink" viewBox="0 0 1000 1000">
  <defs>
    <style>
      .cls-1 {
        fill: #f1f1f1;
        opacity: .75;
      }

      .cls-2 {
        fill: url(#radial-gradient);
      }

      .cls-3 {
        fill: #231f20;
        stroke: #231f20;
        stroke-width: .56px;
      }
    </style>
    <radialGradient id="radial-gradient" cx="500.4" cy="500.2" fx="500.4" fy="500.2" r="499.6" gradientUnits="userSpaceOnUse">
      <stop offset="0" stop-color="#c381b1"/>
      <stop offset=".18" stop-color="#b877ac"/>
      <stop offset=".49" stop-color="#9d5f9f"/>
      <stop offset=".81" stop-color="#7c418f"/>
    </radialGradient>
  </defs>
  <!-- Generator: Adobe Illustrator 28.7.0, SVG Export Plug-In . SVG Version: 1.2.0 Build 136)  -->
  <g>
    <g id="Layer_1">
      <g>
        <g>
          <path class="cls-2" d="M1000,500.2c0,275.92-223.68,499.59-499.59,499.59S.8,776.12.8,500.2,224.48.61,500.41.61s499.59,223.68,499.59,499.59Z"/>
          <path class="cls-1" d="M121,260.54S210.79,101.25,407.73,63.59c0,0,46.33,11.61-34.75,52.13,0,0-182.47,153.51-214.34,159.29,0,0-49.21,20.28-37.64-14.47Z"/>
        </g>
        <path class="cls-3" d="M495.21,157.82c-336.3,0-473.24,371-473.24,371v3.46s152.54,310.3,478.44,310.3,475.35-314.12,478.43-318.97c-2.52,3.11-148.23-365.79-483.63-365.79ZM433.69,492.39c40.7,0,73.66-31.81,73.66-71.05,0-19.92-8.48-37.88-22.16-50.79,5-.73,10.07-1.23,15.23-1.23,58.41,0,105.75,47.75,105.75,106.62s-47.35,106.61-105.75,106.61-102.46-44.67-105.46-100.84c11.26,6.74,24.5,10.68,38.73,10.68ZM516.02,754.16c-235.75,0-376.18-232.29-376.18-232.29,0,0,76.89-189.06,254.15-250.03-78.94,40.05-132.8,119.88-132.8,211.91,0,132.11,110.99,239.22,247.9,239.22s247.9-107.11,247.9-239.22c0-91.58-53.33-171.09-131.66-211.32,179.9,60.46,270.35,242.49,270.35,242.49,0,0-143.9,239.23-379.66,239.23Z"/>
      </g>
    </g>
  </g>
</svg>